# xmcd
#
# Track frame offsets:
#	150
#	19105
#	35548
#	50972
#	63856
#	85935
#	103627
#	121973
#	148146
#	169055
#	189769
#	203976
#	222793
#	242794
#	271768
#
# Disc length: 3886 seconds
#
# Revision: 1
# Processed by: cddbd v1.5.2PL0 Copyright (c) Steve Scherf et al.
# Submitted via: audiograbber 1.83.01
#
DISCID=d50f2c0f
DTITLE=Various Artist - DJ Beats Vol 11
DYEAR=1900
DGENRE=
TTITLE0=Queen - Another One Bites The Dust
TTITLE1=Bryan Adams - Summer Of '69
TTITLE2=Mary Mary - Shackles (Praise You)
TTITLE3=Madness - Baggy Trousers
TTITLE4=Lionel Richie - Dancing On The Ceiling
TTITLE5=Billy Joel - Uptown Girl
TTITLE6=Blondie - Atomic
TTITLE7=Michael Jackson - Man In The Mirror
TTITLE8=Jermaine Stewart - We Don't Have To Take Our Clothes Off
TTITLE9=David Bowie - Let's Dance
TTITLE10=Abba - Waterloo
TTITLE11=The Police - Every Breath You Take
TTITLE12=Londonbeat - I've Been Thinking About You
TTITLE13=Queen - Radio Ga Ga
TTITLE14=La Bouche - Be My Lover
EXTD=
EXTT0=
EXTT1=
EXTT2=
EXTT3=
EXTT4=
EXTT5=
EXTT6=
EXTT7=
EXTT8=
EXTT9=
EXTT10=
EXTT11=
EXTT12=
EXTT13=
EXTT14=
PLAYORDER=
